<svg xmlns="http://www.w3.org/2000/svg" version="1.1" xmlns:xlink="http://www.w3.org/1999/xlink" xmlns:svgjs="http://svgjs.dev/svgjs" width="1000" height="204" viewBox="0 0 1000 204"><g transform="matrix(1,0,0,1,-0.6060583239359971,0.515306575930012)"><svg viewBox="0 0 396 81" data-background-color="#ffffff" preserveAspectRatio="xMidYMid meet" height="204" width="1000" xmlns="http://www.w3.org/2000/svg" xmlns:xlink="http://www.w3.org/1999/xlink"><g id="tight-bounds" transform="matrix(1,0,0,1,0.239999096278666,-0.2046068584827765)"><svg viewBox="0 0 395.52 81.40920747307284" height="81.40920747307284" width="395.52"><g><svg viewBox="0 0 512.8913637476412 105.56755522471428" height="81.40920747307284" width="395.52"><g transform="matrix(1,0,0,1,0,14.590016677221726)"><svg viewBox="0 0 395.52 76.38752187027083" height="76.38752187027083" width="395.52"><g><svg viewBox="0 0 395.52 76.38752187027083" height="76.38752187027083" width="395.52"><g><svg viewBox="0 0 395.52 76.38752187027083" height="76.38752187027083" width="395.52"><rect width="395.52" height="76.38752187027083" x="0" y="0" opacity="1" fill="#000000" data-fill-palette-color="tertiary"></rect><g transform="matrix(1,0,0,1,23.607599999999998,23.607599999999998)"><svg width="348.3048" viewBox="5.420000076293945 -38.650001525878906 467.8199768066406 39.19000244140625" height="29.172321870270835" data-palette-color="#ffffff"><path d="M5.42 0L5.42-38.16 25.81-38.16Q29.54-38.16 32.31-37.37 35.08-36.57 36.91-35.18 38.75-33.79 39.64-31.87 40.53-29.96 40.53-27.73L40.53-27.73Q40.53-24.1 38.23-21.36L38.23-21.36Q40.87-19.8 42.16-17.31 43.46-14.82 43.46-11.65L43.46-11.65Q43.46-8.98 42.57-6.84 41.67-4.69 39.86-3.16 38.04-1.64 35.27-0.82 32.5 0 28.74 0L28.74 0 5.42 0ZM13.16-23.51L28.78-23.51Q29.79-23.51 30.74-23.44L30.74-23.44Q32.37-25 32.37-27L32.37-27Q32.37-29.08 30.75-30.21 29.13-31.35 26-31.35L26-31.35 13.16-31.35 13.16-23.51ZM13.16-6.74L28.93-6.74Q32.06-6.74 33.68-8.08 35.3-9.42 35.3-11.87L35.3-11.87Q35.3-14.31 33.68-15.67 32.06-17.04 28.93-17.04L28.93-17.04 13.16-17.04 13.16-6.74ZM46.38 0L64.3-38.16 72.51-38.16 90.96 0 82.83 0 79.78-6.42 57.49-6.42 54.54 0 46.38 0ZM60.45-12.79L76.73-12.79 68.48-30.13 60.45-12.79ZM96.85 0L96.85-38.16 104.58-38.16 128.36-25.71 128.36-38.16 136.1-38.16 136.1 0 128.36 0 128.36-17.5 104.58-29.88 104.58 0 96.85 0ZM146.89 0L146.89-38.16 154.63-38.16 154.63-18.41 174.77-38.16 184.68-38.16 165.89-19.95 184.68 0 174.38 0 160.32-14.55 154.63-9.06 154.63 0 146.89 0ZM202.75-5.08L206.87-11.35Q208.95-10.18 211.08-9.24 213.22-8.3 215.51-7.65 217.81-7.01 220.34-6.67 222.86-6.32 225.72-6.32L225.72-6.32Q229.16-6.32 231.58-6.77 234-7.23 235.52-8.02 237.05-8.81 237.74-9.91 238.44-11.01 238.44-12.3L238.44-12.3Q238.44-14.38 236.71-15.59 234.97-16.8 231.36-16.8L231.36-16.8Q229.77-16.8 228.01-16.59 226.26-16.38 224.46-16.14 222.67-15.89 220.92-15.69 219.18-15.48 217.64-15.48L217.64-15.48Q215.08-15.48 212.72-16.14 210.36-16.8 208.54-18.12 206.73-19.43 205.65-21.41 204.58-23.39 204.58-26.03L204.58-26.03Q204.58-27.59 205-29.13 205.43-30.66 206.37-32.07 207.31-33.47 208.8-34.68 210.29-35.89 212.4-36.77 214.51-37.65 217.28-38.15 220.06-38.65 223.6-38.65L223.6-38.65Q226.16-38.65 228.75-38.37 231.34-38.09 233.79-37.57 236.24-37.06 238.51-36.34 240.78-35.62 242.74-34.74L242.74-34.74 239.34-28.49Q237.73-29.2 235.88-29.8 234.02-30.4 231.99-30.83 229.97-31.27 227.81-31.53 225.65-31.79 223.4-31.79L223.4-31.79Q220.2-31.79 218.14-31.32 216.08-30.86 214.86-30.14 213.63-29.42 213.16-28.53 212.68-27.64 212.68-26.76L212.68-26.76Q212.68-25.05 214.22-23.96 215.76-22.88 218.91-22.88L218.91-22.88Q220.18-22.88 221.83-23.06 223.47-23.24 225.29-23.46 227.11-23.68 229-23.86 230.9-24.05 232.68-24.05L232.68-24.05Q236.05-24.05 238.65-23.29 241.25-22.53 243.01-21.13 244.76-19.73 245.67-17.74 246.57-15.75 246.57-13.28L246.57-13.28Q246.57-9.99 245.04-7.41 243.52-4.83 240.7-3.06 237.88-1.29 233.9-0.38 229.92 0.54 225.04 0.54L225.04 0.54Q221.81 0.54 218.74 0.13 215.66-0.27 212.84-1.01 210.02-1.76 207.47-2.8 204.92-3.83 202.75-5.08L202.75-5.08ZM266.78 0L266.78-9.45 250.11-38.16 258.87-38.16 270.61-16.46 282.21-38.16 290.98-38.16 274.52-9.5 274.52 0 266.78 0ZM294.49-5.08L298.62-11.35Q300.69-10.18 302.83-9.24 304.96-8.3 307.26-7.65 309.55-7.01 312.08-6.67 314.61-6.32 317.46-6.32L317.46-6.32Q320.91-6.32 323.32-6.77 325.74-7.23 327.27-8.02 328.79-8.81 329.49-9.91 330.18-11.01 330.18-12.3L330.18-12.3Q330.18-14.38 328.45-15.59 326.72-16.8 323.1-16.8L323.1-16.8Q321.52-16.8 319.76-16.59 318-16.38 316.21-16.14 314.41-15.89 312.67-15.69 310.92-15.48 309.38-15.48L309.38-15.48Q306.82-15.48 304.46-16.14 302.11-16.8 300.29-18.12 298.47-19.43 297.39-21.41 296.32-23.39 296.32-26.03L296.32-26.03Q296.32-27.59 296.75-29.13 297.17-30.66 298.11-32.07 299.05-33.47 300.54-34.68 302.03-35.89 304.15-36.77 306.26-37.65 309.03-38.15 311.8-38.65 315.34-38.65L315.34-38.65Q317.9-38.65 320.49-38.37 323.08-38.09 325.53-37.57 327.99-37.06 330.26-36.34 332.53-35.62 334.48-34.74L334.48-34.74 331.09-28.49Q329.47-29.2 327.62-29.8 325.76-30.4 323.74-30.83 321.71-31.27 319.55-31.53 317.39-31.79 315.14-31.79L315.14-31.79Q311.95-31.79 309.88-31.32 307.82-30.86 306.6-30.14 305.38-29.42 304.9-28.53 304.43-27.64 304.43-26.76L304.43-26.76Q304.43-25.05 305.96-23.96 307.5-22.88 310.65-22.88L310.65-22.88Q311.92-22.88 313.57-23.06 315.22-23.24 317.04-23.46 318.85-23.68 320.75-23.86 322.64-24.05 324.42-24.05L324.42-24.05Q327.79-24.05 330.39-23.29 332.99-22.53 334.75-21.13 336.51-19.73 337.41-17.74 338.31-15.75 338.31-13.28L338.31-13.28Q338.31-9.99 336.79-7.41 335.26-4.83 332.44-3.06 329.62-1.29 325.64-0.38 321.66 0.54 316.78 0.54L316.78 0.54Q313.56 0.54 310.48 0.13 307.4-0.27 304.58-1.01 301.76-1.76 299.21-2.8 296.66-3.83 294.49-5.08L294.49-5.08ZM358.33 0L358.33-31.37 344.24-31.37 344.24-38.16 380.16-38.16 380.16-31.37 366.07-31.37 366.07 0 358.33 0ZM388.41 0L388.41-38.16 420.9-38.16 420.9-31.37 396.14-31.37 396.14-23.75 418.07-23.75 418.07-17.38 396.14-17.38 396.14-6.76 421.41-6.76 421.41 0 388.41 0ZM430.03 0L430.03-38.16 437.77-38.16 451.64-24.24 465.5-38.16 473.24-38.16 473.24 0 465.5 0 465.5-27.44 451.64-14.09 437.77-27.44 437.77 0 430.03 0Z" opacity="1" transform="matrix(1,0,0,1,0,0)" fill="#ffffff" class="undefined-text-0" data-fill-palette-color="quaternary" id="text-0"></path></svg></g></svg></g></svg></g></svg></g><g transform="matrix(1,0,0,1,407.3238,0)"><svg viewBox="0 0 105.5675637476412 105.56755522471428" height="105.56755522471428" width="105.5675637476412"><g><svg xmlns="http://www.w3.org/2000/svg" xmlns:xlink="http://www.w3.org/1999/xlink" version="1.1" x="0" y="0" viewBox="2.699997901916504 2.8000001907348633 94.5 94.49999237060547" enable-background="new 0 0 100 100" xml:space="preserve" height="105.56755522471428" width="105.5675637476412" class="icon-icon-0" data-fill-palette-color="accent" id="icon-0"><path d="M28.3 87.1l4.9-3.5c1.7 0.9 3.6 1.6 5.5 2.2l1 6c0.6 3.2 3.3 5.5 6.5 5.5 0 0 0 0 0.1 0l8.2-0.1c3.2 0 6-2.4 6.5-5.6l1-6c1.8-0.6 3.5-1.3 5.2-2.2l5 3.5c2.7 1.9 6.2 1.5 8.5-0.8l5.7-5.8c2.3-2.3 2.5-5.9 0.6-8.5L83.5 67c0.9-1.8 1.7-3.6 2.2-5.4l6-1.1c3.2-0.6 5.5-3.3 5.5-6.6l-0.1-8.2c0-3.2-2.4-6-5.6-6.5l-5.9-0.9c-0.6-1.9-1.4-3.7-2.3-5.4l3.5-5c1.8-2.7 1.5-6.2-0.8-8.5l-5.8-5.7c-2.3-2.3-5.9-2.5-8.5-0.7L48.4 29.6c-5 0.4-9.7 2.6-13.2 6.3-3.8 4-5.8 9.1-5.7 14.6 0.3 11.1 9.4 20 20.4 20 0.2 0 0.3 0 0.5 0 11.3-0.3 20.2-9.6 20-20.9-0.1-2.3-0.5-4.5-1.2-6.6-0.7-1.8-2.7-2.7-4.5-2.1-1.8 0.7-2.7 2.7-2.1 4.5 0.5 1.4 0.8 2.8 0.8 4.3 0.2 7.4-5.7 13.6-13.1 13.8-7.5 0.1-13.6-5.7-13.8-13.1-0.1-3.6 1.2-7 3.7-9.6 2.5-2.6 5.8-4.1 9.4-4.2 0.7 0 1.4-0.2 1.9-0.6l24.1-17.1 5.3 5.2-3.4 4.8C76.2 31 76 33.7 77.2 36c0.7 1.5 1.4 3 1.9 4.5 0.8 2.5 2.9 4.3 5.4 4.7l5.7 0.9 0.1 7.5-5.8 1c-2.5 0.4-4.5 2.2-5.3 4.7-0.5 1.5-1.1 3-1.9 4.5-1.2 2.3-1 5.1 0.5 7.2l3.4 4.6L75.9 81l-4.8-3.4C69 76.1 66.3 76 64 77.2c-1.4 0.7-2.8 1.3-4.3 1.8-2.5 0.8-4.2 2.9-4.7 5.4l-0.9 5.7-7.5 0.1-1-5.7c-0.4-2.5-2.3-4.6-4.7-5.4-1.6-0.5-3.1-1.1-4.5-1.8-2.3-1.2-5-1-7.1 0.5l-4.7 3.4L19.1 76l3.3-4.8c1.5-2.1 1.6-4.8 0.4-7.1-0.7-1.4-1.4-2.9-1.9-4.5-0.8-2.5-2.9-4.2-5.4-4.6L9.8 54l-0.1-7.5 5.8-1c2.5-0.4 4.6-2.3 5.4-4.7 0.5-1.6 1.1-3.1 1.8-4.5 1.2-2.3 1-5-0.5-7.1l-3.4-4.7 5.2-5.3 4.8 3.3c2.1 1.5 4.9 1.6 7.2 0.4 1.5-0.8 3-1.4 4.6-1.9 2.5-0.8 4.3-2.9 4.7-5.5l0.9-5.6L54 9.8c1.9 0 3.5-1.6 3.5-3.5 0-1.9-1.6-3.5-3.5-3.5 0 0 0 0 0 0l-8.2 0.1c-3.2 0-6 2.4-6.5 5.6l-0.9 5.9c-2 0.6-3.9 1.4-5.7 2.4l-5-3.5c-2.7-1.8-6.2-1.5-8.5 0.8l-5.7 5.8c-2.3 2.3-2.5 5.9-0.6 8.5l3.5 4.9c-0.9 1.7-1.6 3.6-2.2 5.5l-6 1c-3.1 0.6-5.4 3.2-5.5 6.3 0 0.1 0 0.1 0 0.2l0.1 8.2c0 3.2 2.4 6 5.6 6.5l6 1c0.6 1.9 1.4 3.7 2.3 5.4l-3.5 5c-1.8 2.7-1.5 6.2 0.8 8.5l5.8 5.7C22.1 88.7 25.6 89 28.3 87.1z" fill="#000000" data-fill-palette-color="accent"></path></svg></g></svg></g></svg></g><defs></defs></svg><rect width="395.52" height="81.40920747307284" fill="none" stroke="none" visibility="hidden"></rect></g></svg></g></svg>